<svg width="227" height="80" viewBox="0 0 227 80" fill="none" xmlns="http://www.w3.org/2000/svg">
<path d="M42.818 35.8204V50.4209C42.818 54.1656 44.6336 55.9812 48.3783 55.9812H50.0048C53.7495 55.9812 55.5651 54.1656 55.5651 50.4209V43.272H64.1136V50.1183C64.1136 59.499 59.3854 64.3406 49.8913 64.3406H48.0757C38.6951 64.3406 33.8535 59.6124 33.8535 51.2531V15.3949C33.8535 4.9173 38.5816 0.0756836 48.0757 0.0756836H49.8913C59.2719 0.0756836 64.1136 4.80383 64.1136 14.2979V35.7448H42.8558V35.8204H42.818ZM42.818 27.2341H55.4138V13.9197C55.4138 10.175 53.5982 8.35939 49.8535 8.35939H48.454C44.7093 8.35939 42.8937 10.175 42.8937 13.9197V27.2341H42.818Z" fill="black" fill-opacity="0.5"/>
<path d="M69.9387 0.831971H78.7897V4.87926C80.9079 2.64758 84.5392 0.151123 89.5699 0.151123C97.1349 0.151123 100.842 5.18186 100.842 12.5578V51.8581C100.842 59.3096 97.0971 64.2647 89.5699 64.2647C84.4257 64.2647 80.9079 61.8439 78.7897 59.7257V80H69.9387V0.831971ZM78.7897 52.6524C81.2105 54.7706 84.0474 55.8675 86.96 55.8675C90.1751 55.8675 92.1042 54.3545 92.1042 50.7233V13.6547C92.1042 10.0235 90.2886 8.51047 86.96 8.51047C84.0474 8.51047 81.2105 9.72087 78.7897 11.7256V52.6524Z" fill="black" fill-opacity="0.5"/>
<path d="M106.213 41.7589C106.213 34.0048 108.747 30.8653 115.48 28.558L127.357 24.5107V13.9196C127.357 10.175 125.542 8.17023 121.797 8.17023H120.397C116.653 8.17023 114.837 10.175 114.837 13.9196V22.7707H106.289V14.2222C106.289 4.84161 111.017 0 120.511 0H122.213C131.594 0 136.435 4.72814 136.435 14.2222V63.5084H127.584V59.5746C125.163 61.8819 121.835 64.2271 116.804 64.2271C109.731 64.2271 106.44 60.1798 106.44 53.1443V41.7589H106.213ZM127.395 52.9552V32.3027L119.338 35.3287C116.123 36.6525 114.988 38.2412 114.988 41.8724V51.4422C114.988 54.4682 116.501 55.9812 119.338 55.9812C122.024 55.8677 124.445 54.9599 127.395 52.9552Z" fill="black" fill-opacity="0.5"/>
<path d="M171.915 63.546H163.064V13.0495C163.064 9.91 161.551 8.51047 158.828 8.51047C156.407 8.51047 153.797 9.41828 150.657 11.65V63.546H141.806V0.831971H150.657V4.87926C153.192 2.45846 156.596 0.151123 161.438 0.151123C165.977 0.151123 169.003 1.96673 170.591 5.29534C173.731 2.57193 177.438 0.151123 182.582 0.151123C189.428 0.151123 192.946 4.38753 192.946 11.2339V63.6217H184.095V13.0495C184.095 9.91 182.582 8.51047 179.858 8.51047C177.438 8.51047 174.828 9.41828 171.688 11.65V63.546H171.915Z" fill="black" fill-opacity="0.5"/>
<path d="M22.6572 6.58154V18.156L7.8298 32.2648L22.6572 46.1844V57.9859L0 36.6147V28.1419L22.6572 6.58154Z" fill="black" fill-opacity="0.5"/>
<path d="M226.951 28.1419V36.6147L204.293 57.9859V46.1844L219.121 32.2648L204.293 18.0804V6.58154L226.951 28.1419Z" fill="black" fill-opacity="0.5"/>
</svg>
