<svg width="392" height="80" viewBox="0 0 392 80" fill="none" xmlns="http://www.w3.org/2000/svg">
<path fill-rule="evenodd" clip-rule="evenodd" d="M176.133 33.568C176.133 21.2266 186.304 11.1893 198.8 11.1893C211.296 11.1893 221.467 21.2266 221.467 33.568C221.467 45.9093 211.296 55.9466 198.8 55.9466C186.304 55.9466 176.133 45.9093 176.133 33.568ZM176.464 8.26129C176.309 8.39462 176.064 8.32529 176.005 8.13329L174.427 2.79996H164.795V80.0053H176.128V58.5866C182.144 63.904 190.085 67.136 198.795 67.136C218.011 67.136 233.504 51.3973 232.768 32.2613C232.091 14.4853 217.253 0.229289 199.237 -4.45305e-05C190.517 -0.106711 182.539 3.02395 176.464 8.25596V8.26129ZM392 10.1706C388.933 7.03996 385.419 4.64529 381.675 2.97062C377.483 1.06662 372.837 -4.45305e-05 367.952 -4.45305e-05C359.317 -4.45305e-05 351.637 3.10396 345.797 8.25062C345.637 8.38929 345.392 8.31462 345.344 8.10662L344.048 2.86929H334.203V70H345.451V40.2613C345.451 32.1386 345.936 24.2933 352.064 18.2613C355.376 15.0026 359.669 12.752 364.203 11.9306C368.827 11.0933 373.659 11.76 377.893 13.8346C380.171 14.9493 382.261 16.4586 384.048 18.2826L392.005 10.1706H392ZM53.3653 3.49862V34.464C53.3653 45.9893 43.9147 55.3653 32.2987 55.3653C20.6827 55.3653 11.232 45.9893 11.232 34.464V3.49862H0V34.464C0 52.2186 14.4907 66.6666 32.2987 66.6666C50.1067 66.6666 64.5973 52.2186 64.5973 34.464V3.49862H53.36H53.3653ZM306.011 30.128L258.293 30.0533C259.328 25.7333 261.579 21.776 264.869 18.5706C269.461 14.1013 275.525 11.648 281.963 11.648H282.149C296.416 11.7546 304.005 20.3306 306.005 30.128H306.011ZM281.824 70.56C282.069 70.5706 282.491 70.5866 283.051 70.5866C287.824 70.5866 302.992 69.488 312.075 56.2453L302.752 50.0586C295.861 60.112 283.163 59.5573 282.395 59.5093L282.016 59.4933C270.512 59.456 260.859 51.6106 258.304 41.1146L317.776 41.2053L317.792 35.6853C317.824 26.1493 314.453 17.3973 308.299 11.0346C301.765 4.27729 292.752 0.666622 282.235 0.586622C282.144 0.586622 282.048 0.586622 281.957 0.586622C272.539 0.586622 263.669 4.17596 256.955 10.704C250.176 17.3013 246.427 26.096 246.395 35.4613C246.331 54.6986 262.208 70.416 281.819 70.56H281.824ZM114.4 11.1893C101.904 11.1893 91.7333 21.2266 91.7333 33.568C91.7333 45.9093 101.899 55.9466 114.4 55.9466C126.901 55.9466 137.067 45.9093 137.067 33.568C137.067 21.2266 126.901 11.1893 114.4 11.1893ZM91.6107 8.12796C91.6693 8.32529 91.9093 8.39462 92.0693 8.25596C98.144 3.02929 106.117 -0.106711 114.837 -4.45305e-05C132.853 0.223955 147.691 14.4853 148.373 32.256C149.109 51.392 133.616 67.1306 114.4 67.1306C105.691 67.1306 97.7493 63.8986 91.7333 58.5813V80H80.4V2.79462H90.032L91.6053 8.12796H91.6107Z" fill="black" fill-opacity="0.5"/>
</svg>
