<?xml version="1.0" encoding="UTF-8"?><svg id="Layer_2" xmlns="http://www.w3.org/2000/svg" viewBox="0 0 1752.33 394.94"><defs><style>.cls-1,.cls-2{fill:none;}.cls-3{fill:#f6d33c;}.cls-2{stroke:#000;stroke-miterlimit:10;stroke-width:20.53px;}.cls-4{letter-spacing:-.01em;}.cls-5{fill:#02000b;font-family:ArialRoundedMTBold, 'Arial Rounded MT Bold';font-size:344.21px;}</style></defs><g id="Layer_1-2"><rect class="cls-3" width="394.94" height="394.94" rx="51.33" ry="51.33"/><circle class="cls-2" cx="199.58" cy="197.47" r="62.12"/><path class="cls-1" d="m201.49,139.04c-33.8-1.08-61.42,26.54-60.34,60.34.98,30.61,25.91,55.54,56.52,56.52,33.8,1.08,61.42-26.54,60.34-60.34-.98-30.61-25.91-55.54-56.52-56.51Zm-1.28,102.98c-25.59.35-46.32-20.87-45.14-46.64,1.04-22.77,19.54-41.31,42.31-42.42,6.39-.31,12.5.74,18.08,2.87,2.61-1.73,5.82-2.64,9.25-2.33,6.37.58,11.67,5.48,12.79,11.78.49,2.73.15,5.33-.74,7.65,4.7,7.11,7.43,15.65,7.37,24.83-.16,24.07-19.86,43.93-43.93,44.26Z"/><path d="m236.76,172.93c-2.29,5.98-8.45,10.04-15.42,9.08-6.26-.86-11.31-5.9-12.17-12.16-.81-5.83,1.89-11.1,6.29-14.02-5.58-2.13-11.68-3.18-18.08-2.87-22.77,1.11-41.27,19.64-42.31,42.42-1.18,25.77,19.55,47,45.14,46.64,24.07-.33,43.77-20.19,43.93-44.26.06-9.18-2.66-17.72-7.37-24.83Z"/><path class="cls-1" d="m236.76,172.93c.89-2.32,1.23-4.92.74-7.65-1.12-6.3-6.43-11.2-12.79-11.78-3.43-.31-6.64.6-9.25,2.33,8.77,3.35,16.21,9.38,21.31,17.1Z"/><path class="cls-1" d="m209.17,169.85c.87,6.26,5.91,11.3,12.17,12.16,6.97.96,13.13-3.1,15.42-9.08-5.1-7.72-12.54-13.75-21.31-17.1-4.4,2.92-7.1,8.19-6.29,14.02Z"/><path d="m301.7,163.24l12.14,10.53,12.95,11.23c7.59,6.58,7.59,18.35,0,24.93l-43.92,38.1c-2.72,2.36-4.44,7.19-4.44,12.47h0c0,10.36,6.29,17.1,11.63,12.47l72.67-63.03c7.59-6.58,7.59-18.35,0-24.93l-12.95-11.23-12.14-10.53-26.8-23.24-12.14-10.53-8.63-7.49c-5.34-4.63-11.63,2.11-11.63,12.47h0c0,5.28,1.72,10.11,4.44,12.47l18.83,16.33Z"/><path d="m99.45,163.24l-13.3,10.53-14.18,11.23c-8.04,6.37-8.04,18.57,0,24.93l48.09,38.1c2.98,2.36,4.86,7.19,4.86,12.47h0c0,10.36-6.88,17.1-12.73,12.47l-79.56-63.03c-8.04-6.37-8.04-18.57,0-24.93l14.18-11.23,13.3-10.53,29.34-23.24,13.3-10.53,9.45-7.49c5.85-4.63,12.73,2.11,12.73,12.47h0c0,5.28-1.88,10.11-4.86,12.47l-20.61,16.33Z"/><text class="cls-5" transform="translate(471.87 309.86)"><tspan class="cls-4" x="0" y="0">v</tspan><tspan x="182.02" y="0">e</tspan><tspan class="cls-4" x="386.56" y="0">e</tspan><tspan x="586.56" y="0">z</tspan><tspan class="cls-4" x="765.89" y="0">b</tspan><tspan x="976.49" y="0">le</tspan></text></g></svg>